<?xml version="1.0" encoding="UTF-8"?>
<svg version="1.1" viewBox="0 0 1600 801" width="1280" height="1280" xmlns="http://www.w3.org/2000/svg">
<path transform="translate(0)" d="m0 0h1600v801h-1600z" fill="#FCFCFC"/>
<path transform="translate(595,102)" d="m0 0 49 1 41 3 42 5 37 6 29 6v1l-13-1-9-1 30 5v1h-56l-63 3-49 5-45 7-42 9-40 11-30 10 1 1 116 1 6 4 3 7-1 9-14 52-16 61-5 19v3l88-112 5-5 13 49 19 73 24-93 16-61 6-5 4-1h200l5 5 2 4 1 9-6 2-17 5-16 8-15 12-8 10-8 13-8 19-16 57-21 78-18 69-13 49-5 10-7 5-7 2h-127l-9-3-5-5-5-10-16-64-11-42v-4h-2l-2 4-10 13-12 15-11 14-28 36-12 16-10 13-9 9-12 6-7 2h-127l-8-4-2-4 5-2 17-5 12-5 12-8 14-12 7-8 8-11 8-16 6-14 9-27 25-97 23-91 7-29 1-10-3-7-4-2h-127l-8 4-5 6-3 7-9 36-3 6-13 10-13 12-7 6-7 8-10 11-13 18-9 16-7 14-8 24-3 14-2 16v22l1 16-18 2-8 4-10 9-6 12-11 41-4 19 1 9 4 4 22 1h76l10 13 9 10 7 8 24 24 11 9 13 11 20 15 20 14 26 16 25 14 23 12 10 5-3 1-43-10-35-10-36-12-29-11-25-11-25-12-19-10-20-12-17-11-23-14-16-11-17-13-13-11-10-9-19-19-11-14-10-14-9-15-8-16-7-18-5-20-2-15v-30l3-18 6-21 8-18 8-15 11-16 11-14 15-16 8-8 11-9 13-11 20-14 19-12 18-10 23-12 32-14 36-13 29-9 40-10 37-7 33-5 38-4 29-2z" fill="#F5A53E"/>
<path transform="translate(1102,103)" d="m0 0 11 2 31 8 39 12 34 12 32 13 24 11 16 8 23 12 20 12 9 6 6 3 5 5 13 9 13 10 15 13 24 24 11 14 12 17 8 14 9 19 6 20 3 12 1 11v29l-3 18-4 15-6 16-12 23-11 16-9 11-9 10-19 19-22 18-20 14-21 13-22 12-28 14-16 7-25 10-20 7-21 7-19 6-37 10-30 7-28 5-14 3-26 4-22 3-52 5-45 3h-105l-48-3-42-4-39-5-41-7-44-9-47-12-39-12-37-13-29-12-20-9-5-2 4-1 36 8 44 8 34 5 45 5 42 3 44 2h50l48-2 50-4 48-6 37-6 40-8 44-11 36-11 32-11 32-13 28-13 23-12 22-13 15-10 18-13 13-11 20-18 11-12 13-17 10-15 9-17 8-21 5-21 2-16v-20l-4-25-6-20-8-18-8-15-11-16-11-14-12-13-18-18-11-9-15-12-20-14-19-12-23-13-23-12z" fill="#313964"/>
<path transform="translate(1095,181)" d="m0 0 116 1 4 3v9l-16 63-16 64-18 71-31 124-4 6-5 3h-125l-4-2-1-2 1-10 14-55 20-79 5-20v-9l-9 12-16 21-14 19-10 13-12 16-16 21-14 19-6 8h-2l-4-14-18-73-10-40v-2l-3 1-43 172-3 3h-48l2-9 26-100 25-93 15-53 7-19 9-16 12-13 10-8 16-8 14-4h5l13 54 15 59v4l5-5 14-19 16-21 21-28 28-38 8-11 8-8 10-5z" fill="#174668"/>
<path transform="translate(396,184)" d="m0 0 109 1 3 3-1 12-28 112-17 65-9 36-10 30-11 24-9 13-19 19-14 9-14 6-21 5-18 2-16 1h-110l-3-3v-8l11-44 5-16 6-9 9-7 8-3 31-2 11-3 10-6 7-10 8-15 10-26 6-21 18-71 18-73 4-12 4-5 6-3z" fill="#174668"/>
<path transform="translate(1164,510)" d="m0 0 3 1-5 5h-2v2h7l2 4-2 3v10l2 3v10l-2 16 5 4 1 5v11l-2 7 1 10-3 5v6l19 2 7 1h14l10 2 19-5 9-2v2l-24 9-24 8-19 6-37 10-30 7-28 5-14 3-26 4-22 3-52 5-45 3h-105l-48-3-42-4-39-5-41-7-44-9-47-12-39-12-37-13-29-12-20-9-5-2 4-1 36 8 44 8 34 5 45 5 42 3 44 2h50l48-2 50-4 48-6 37-6 40-8 44-11 36-11 32-11 32-13 28-13 23-12z" fill="#174668"/>
<path transform="translate(1347,203)" d="m0 0 6 2 24 15 17 12 14 11 13 11 16 15 13 14 13 17 10 15 8 14 8 19 6 21 3 18v31l-3 19-6 20-9 21-10 17-11 15-9 11-12 13-11 11-11 9-13 11-17 12-17 11-15 9-24 13-31 15-27 11-30 11-31 10-44 12-41 9-45 8-36 5-38 4-45 3-18 1h-86l-52-3-51-5-49-7-48-9-46-11-35-10-36-12-32-12-34-15-30-15-14-8 3-1 28 12 27 10 36 12 34 10 31 8 9 1 41 9 46 8 37 5 37 4 61 4h105l57-4 40-4 33-5 15-2 20-4 31-6 37-9 21-6 19-6 27-9 32-12 12-5 35-17 21-11 23-14 20-14 13-10 10-9 8-7 19-19 11-14 12-18 12-23 7-20 4-20 1-7v-29l-2-15-7-25-7-16-9-17-11-16-11-14-11-12-19-19-11-9-18-14-13-9z" fill="#F5A43E"/>
<path transform="translate(238,224)" d="m0 0 4 1 1 3 1 12 1 6v24l-1 7-1 4 1 20 3 11 3 31 2 16 4-1 1-3 3 1 2 6-2 17-1 9v22l1 16-18 2-8 4-10 9-6 12-11 41-4 19 1 9 4 4 33 2 44 1 7 3 1 3 2 2-9 6-12 4-2 2 1 7 3 10 5 6 1 4-2 4-5-2-7-3-17-9-7-4-5 1-2 1-11-9-27-27-7-8-11-13-12-17-9-15-8-16-8-20-6-22-2-13-1-12v-12l2-21 4-19 7-20 8-16 8-14 10-14 11-13 11-12 8-8 10-8 6-4 6-2 7-1z" fill="#FECB3A"/>
<path transform="translate(489,334)" d="m0 0 5 1 3 3 12 23 6 10 6 8 4 7 7 10 7 9 5 6 10 14 9 11 2 4 4 4v7l-1 2h2l-2 5-12 15-10 13-12 16-10 13-9 9-12 6-7 2h-127l-8-4-2-4 5-2 17-5 12-5 12-8 14-12 7-8 8-11 8-16 6-14 9-27 19-73 3-3h3z" fill="#A25F33"/>
<path transform="translate(1176,328)" d="m0 0 1 4 1 9-25 99-19 76-4 6-5 3h-125l-4-2-1-2 1-10 5-18 2-2 4-15 4-7h6l5-5 13-16 7-7h2l2-4 13-11 7-7 15-10 5-5 11-10 8-7 10-9 4-3h2v-2l11-9 9-8 11-9 9-7 9-6h2l1-4h3z" fill="#313964"/>
<path transform="translate(462,423)" d="m0 0h6l6 8 11 19 7 9 9 11 4 5 5 10 5 4v3h2l6 8 2 8v6l-10 10-12 6-7 2h-127l-8-4-2-4 5-2 17-5 12-5 12-8 14-12 7-8 8-11 8-16 6-14 5-14 3-3 5-2z" fill="#824C2F"/>
<path transform="translate(489,334)" d="m0 0 5 1 3 3 12 23 6 10 6 8 4 7 7 10 7 9 5 6 10 14 9 11 2 4 4 4v7l-1 2h2l-2 5-12 15-6 8-3-1v-10l-5-8-8-9-8-13-7-9-8-9-8-13-6-9-5-10-4-4-5-7v-2l-7-1-5 5-3 1-2 2 2-10 8-31 3-3h3z" fill="#B86E38"/>
<path transform="translate(462,423)" d="m0 0h6l6 8 11 19 7 9 9 11 4 5 5 10 5 4v3h2l6 8 2 8v6l-10 10-12 6-7 2h-19v-1h9v-2l11-6 1-4-5-5-7-6-9-16-11-11-9-19-1-3-10-2h-3l3-9 7-19 3-3 5-2z" fill="#8E4F2E"/>
<path transform="translate(929,175)" d="m0 0h12l5 5 2 4 1 9-6 2-17 5-16 8-5 4h-3l-3-5h-3l-5 4-3-1-5-9-1-3-4-2-14-8-16-4-1-3h2v-2l3-2 11-1z" fill="#FECA3A"/>
<path transform="translate(666,114)" d="m0 0h17l48 3v2h18l48 7 4 2h-56l-63 3h-16l3-3-8-4 3-9z" fill="#A66233"/>
<path transform="translate(428,461)" d="m0 0 1 2h4l-2 5-7 11-20 20-14 9-14 6-16 4h-23v-1l22-4 15-7 17-9 10-8 8-6 5-5 7-8 4-7z" fill="#2F3A64"/>
<path transform="translate(666,114)" d="m0 0h17l13 3 2 1v2l6 2 4 3v2l12 1v1l-38 2h-16l3-3-8-4 3-9z" fill="#BA7038"/>
<path transform="translate(725,118)" d="m0 0 24 1 48 7 4 2h-31l-5-1-20-1v-3l-7-2-13-2z" fill="#A56331"/>
<path transform="translate(375,519)" d="m0 0 4 1-4 2 2 5 5 2 1 2-14 1-8-4-2-4 5-2z" fill="#975830"/>
<path transform="translate(1148,120)" d="m0 0 9 2 15 5 5 4v2h-8l-16-8-5-3z" fill="#174769"/>
<path transform="translate(250,407)" d="m0 0 4 2 2 5h-2l3 6-5 3-7-3-1-6 4-4z" fill="#F6A53E"/>
<path transform="translate(269,586)" d="m0 0 5 3 4 1 8 5 6 6v2l-4-1-16-9-3-2z" fill="#FDC53A"/>
<path transform="translate(774,124)" d="m0 0h11l8 2v1h-18z" fill="#935831"/>
<path transform="translate(1102,103)" d="m0 0 11 2 5 2-1 2 3 3-6-2-12-6z" fill="#1A4568"/>
<path transform="translate(1262,603)" d="m0 0h2v2l-11 5-4-1 8-4z" fill="#1E4664"/>
</svg>
